<?xml version="1.0" encoding="UTF-8" standalone="no"?>
<!DOCTYPE svg PUBLIC "-//W3C//DTD SVG 1.1//EN"
 "http://www.w3.org/Graphics/SVG/1.1/DTD/svg11.dtd">
<!-- Generated by graphviz version 14.1.5 (20260411.2331)
 -->
<!-- Title: BoD Pages: 1 -->
<svg width="714pt" height="403pt"
 viewBox="0.00 0.00 714.00 403.00" xmlns="http://www.w3.org/2000/svg" xmlns:xlink="http://www.w3.org/1999/xlink">
<g id="graph0" class="graph" transform="scale(0.980535 0.980535) rotate(0) translate(4 407)">
<title>BoD</title>
<polygon fill="white" stroke="none" points="-4,4 -4,-407 724,-407 724,4 -4,4"/>
<!-- signal -->
<g id="node1" class="node">
<title>signal</title>
<path fill="#fef9e7" stroke="#2c3e50" stroke-width="1.4" d="M140.02,-401.95C140.02,-401.95 29.98,-401.95 29.98,-401.95 23.98,-401.95 17.98,-395.95 17.98,-389.95 17.98,-389.95 17.98,-376.55 17.98,-376.55 17.98,-370.55 23.98,-364.55 29.98,-364.55 29.98,-364.55 140.02,-364.55 140.02,-364.55 146.02,-364.55 152.02,-370.55 152.02,-376.55 152.02,-376.55 152.02,-389.95 152.02,-389.95 152.02,-395.95 146.02,-401.95 140.02,-401.95"/>
<text xml:space="preserve" text-anchor="start" x="33.25" y="-383.4" font-family="Helvetica,sans-Serif" font-weight="bold" font-size="13.00">1. Source signal</text>
<text xml:space="preserve" text-anchor="start" x="29.5" y="-373.25" font-family="Helvetica,sans-Serif" font-size="10.00">clicks · qrels · hybrid+CE</text>
</g>
<!-- bags -->
<g id="node2" class="node">
<title>bags</title>
<path fill="#d6eaf8" stroke="#2c3e50" stroke-width="1.4" d="M147.52,-310.95C147.52,-310.95 22.48,-310.95 22.48,-310.95 16.48,-310.95 10.48,-304.95 10.48,-298.95 10.48,-298.95 10.48,-285.55 10.48,-285.55 10.48,-279.55 16.48,-273.55 22.48,-273.55 22.48,-273.55 147.52,-273.55 147.52,-273.55 153.52,-273.55 159.52,-279.55 159.52,-285.55 159.52,-285.55 159.52,-298.95 159.52,-298.95 159.52,-304.95 153.52,-310.95 147.52,-310.95"/>
<text xml:space="preserve" text-anchor="start" x="22" y="-292.4" font-family="Helvetica,sans-Serif" font-weight="bold" font-size="13.00">2. Bag construction</text>
<text xml:space="preserve" text-anchor="start" x="30.25" y="-282.25" font-family="Helvetica,sans-Serif" font-size="10.00">{ query, [doc1, doc2, ...] }</text>
</g>
<!-- signal&#45;&gt;bags -->
<g id="edge1" class="edge">
<title>signal&#45;&gt;bags</title>
<path fill="none" stroke="#2c3e50" stroke-width="1.2" d="M85,-363.9C85,-349.56 85,-335.22 85,-320.87"/>
<polygon fill="#2c3e50" stroke="#2c3e50" stroke-width="1.2" points="87.8,-321.26 85,-313.26 82.2,-321.26 87.8,-321.26"/>
</g>
<!-- triplets -->
<g id="node3" class="node">
<title>triplets</title>
<path fill="#d6eaf8" stroke="#2c3e50" stroke-width="1.4" d="M426.14,-310.95C426.14,-310.95 295.86,-310.95 295.86,-310.95 289.86,-310.95 283.86,-304.95 283.86,-298.95 283.86,-298.95 283.86,-285.55 283.86,-285.55 283.86,-279.55 289.86,-273.55 295.86,-273.55 295.86,-273.55 426.14,-273.55 426.14,-273.55 432.14,-273.55 438.14,-279.55 438.14,-285.55 438.14,-285.55 438.14,-298.95 438.14,-298.95 438.14,-304.95 432.14,-310.95 426.14,-310.95"/>
<text xml:space="preserve" text-anchor="start" x="295.38" y="-292.4" font-family="Helvetica,sans-Serif" font-weight="bold" font-size="13.00">3. Training examples</text>
<text xml:space="preserve" text-anchor="start" x="301.38" y="-282.25" font-family="Helvetica,sans-Serif" font-size="10.00">(query, pos) or (q, pos, neg)</text>
</g>
<!-- bags&#45;&gt;triplets -->
<g id="edge2" class="edge">
<title>bags&#45;&gt;triplets</title>
<path fill="none" stroke="#2c3e50" stroke-width="1.2" d="M160.15,-292.25C195.21,-292.25 237.29,-292.25 273.77,-292.25"/>
<polygon fill="#2c3e50" stroke="#2c3e50" stroke-width="1.2" points="273.59,-295.05 281.59,-292.25 273.59,-289.45 273.59,-295.05"/>
</g>
<!-- chs -->
<g id="node8" class="node">
<title>chs</title>
<polygon fill="#fcf3cf" stroke="#9a7d0a" stroke-width="1.4" points="434.77,-128.95 281.23,-128.95 281.23,-81.55 440.77,-81.55 440.77,-122.95 434.77,-128.95"/>
<polyline fill="none" stroke="#9a7d0a" stroke-width="1.4" points="434.77,-128.95 434.77,-122.95"/>
<polyline fill="none" stroke="#9a7d0a" stroke-width="1.4" points="440.77,-122.95 434.77,-122.95"/>
<text xml:space="preserve" text-anchor="start" x="292.75" y="-110.4" font-family="Helvetica,sans-Serif" font-weight="bold" font-size="13.00">BoD readiness check</text>
<text xml:space="preserve" text-anchor="start" x="321.25" y="-100.25" font-family="Helvetica,sans-Serif" font-size="10.00">SCHS (clustering)</text>
<text xml:space="preserve" text-anchor="start" x="304.38" y="-90.25" font-family="Helvetica,sans-Serif" font-size="10.00">+ base R@10 (headroom)</text>
</g>
<!-- bags&#45;&gt;chs -->
<g id="edge7" class="edge">
<title>bags&#45;&gt;chs</title>
<path fill="none" stroke="#2c3e50" stroke-width="1.2" stroke-dasharray="1,5" d="M113.87,-272.93C148.72,-248.79 210.25,-206.28 263.23,-170.25 283.15,-156.71 305.46,-141.71 323.63,-129.54"/>
<text xml:space="preserve" text-anchor="middle" x="210" y="-218.76" font-family="Helvetica,sans-Serif" font-size="10.00">measure</text>
</g>
<!-- finetune -->
<g id="node4" class="node">
<title>finetune</title>
<path fill="#fadbd8" stroke="#922b21" stroke-width="1.4" d="M446.77,-219.95C446.77,-219.95 275.23,-219.95 275.23,-219.95 269.23,-219.95 263.23,-213.95 263.23,-207.95 263.23,-207.95 263.23,-194.55 263.23,-194.55 263.23,-188.55 269.23,-182.55 275.23,-182.55 275.23,-182.55 446.77,-182.55 446.77,-182.55 452.77,-182.55 458.77,-188.55 458.77,-194.55 458.77,-194.55 458.77,-207.95 458.77,-207.95 458.77,-213.95 452.77,-219.95 446.77,-219.95"/>
<text xml:space="preserve" text-anchor="start" x="274.75" y="-201.4" font-family="Helvetica,sans-Serif" font-weight="bold" font-size="13.00">4. Fine&#45;tune query encoder</text>
<text xml:space="preserve" text-anchor="start" x="293.5" y="-191.25" font-family="Helvetica,sans-Serif" font-size="10.00">MultipleNegativesRankingLoss</text>
</g>
<!-- triplets&#45;&gt;finetune -->
<g id="edge3" class="edge">
<title>triplets&#45;&gt;finetune</title>
<path fill="none" stroke="#2c3e50" stroke-width="1.2" d="M361,-272.9C361,-258.56 361,-244.22 361,-229.87"/>
<polygon fill="#2c3e50" stroke="#2c3e50" stroke-width="1.2" points="363.8,-230.26 361,-222.26 358.2,-230.26 363.8,-230.26"/>
</g>
<!-- index -->
<g id="node5" class="node">
<title>index</title>
<path fill="#d5f5e3" stroke="#1e8449" stroke-width="1.4" d="M684.14,-219.95C684.14,-219.95 583.86,-219.95 583.86,-219.95 577.86,-219.95 571.86,-213.95 571.86,-207.95 571.86,-207.95 571.86,-194.55 571.86,-194.55 571.86,-188.55 577.86,-182.55 583.86,-182.55 583.86,-182.55 684.14,-182.55 684.14,-182.55 690.14,-182.55 696.14,-188.55 696.14,-194.55 696.14,-194.55 696.14,-207.95 696.14,-207.95 696.14,-213.95 690.14,-219.95 684.14,-219.95"/>
<text xml:space="preserve" text-anchor="start" x="583.38" y="-201.4" font-family="Helvetica,sans-Serif" font-weight="bold" font-size="13.00">5. Index catalog</text>
<text xml:space="preserve" text-anchor="start" x="586.38" y="-191.25" font-family="Helvetica,sans-Serif" font-size="10.00">encode all documents</text>
</g>
<!-- finetune&#45;&gt;index -->
<g id="edge4" class="edge">
<title>finetune&#45;&gt;index</title>
<path fill="none" stroke="#922b21" stroke-width="1.6" d="M459.45,-201.25C492.99,-201.25 529.91,-201.25 561.05,-201.25"/>
<polygon fill="#922b21" stroke="#922b21" stroke-width="1.6" points="560.95,-204.05 568.95,-201.25 560.95,-198.45 560.95,-204.05"/>
<text xml:space="preserve" text-anchor="middle" x="510" y="-214.25" font-family="Helvetica,sans-Serif" font-size="10.00" fill="#922b21">trained</text>
<text xml:space="preserve" text-anchor="middle" x="510" y="-203" font-family="Helvetica,sans-Serif" font-size="10.00" fill="#922b21">encoder</text>
</g>
<!-- serve -->
<g id="node6" class="node">
<title>serve</title>
<path fill="#d5f5e3" stroke="#1e8449" stroke-width="1.4" d="M667.64,-128.95C667.64,-128.95 600.36,-128.95 600.36,-128.95 594.36,-128.95 588.36,-122.95 588.36,-116.95 588.36,-116.95 588.36,-103.55 588.36,-103.55 588.36,-97.55 594.36,-91.55 600.36,-91.55 600.36,-91.55 667.64,-91.55 667.64,-91.55 673.64,-91.55 679.64,-97.55 679.64,-103.55 679.64,-103.55 679.64,-116.95 679.64,-116.95 679.64,-122.95 673.64,-128.95 667.64,-128.95"/>
<text xml:space="preserve" text-anchor="start" x="599.88" y="-110.4" font-family="Helvetica,sans-Serif" font-weight="bold" font-size="13.00">6. Retrieve</text>
<text xml:space="preserve" text-anchor="start" x="606.62" y="-100.25" font-family="Helvetica,sans-Serif" font-size="10.00">cosine top&#45;K</text>
</g>
<!-- index&#45;&gt;serve -->
<g id="edge5" class="edge">
<title>index&#45;&gt;serve</title>
<path fill="none" stroke="#2c3e50" stroke-width="1.2" d="M634,-181.9C634,-167.56 634,-153.22 634,-138.87"/>
<polygon fill="#2c3e50" stroke="#2c3e50" stroke-width="1.2" points="636.8,-139.26 634,-131.26 631.2,-139.26 636.8,-139.26"/>
</g>
<!-- rerank -->
<g id="node7" class="node">
<title>rerank</title>
<path fill="#fdebd0" stroke="#b9770e" stroke-width="1.4" stroke-dasharray="5,2" d="M697.27,-37.95C697.27,-37.95 570.73,-37.95 570.73,-37.95 564.73,-37.95 558.73,-31.95 558.73,-25.95 558.73,-25.95 558.73,-12.55 558.73,-12.55 558.73,-6.55 564.73,-0.55 570.73,-0.55 570.73,-0.55 697.27,-0.55 697.27,-0.55 703.27,-0.55 709.27,-6.55 709.27,-12.55 709.27,-12.55 709.27,-25.95 709.27,-25.95 709.27,-31.95 703.27,-37.95 697.27,-37.95"/>
<text xml:space="preserve" text-anchor="start" x="570.25" y="-19.4" font-family="Helvetica,sans-Serif" font-weight="bold" font-size="13.00">7. (Optional) Rerank</text>
<text xml:space="preserve" text-anchor="start" x="603.25" y="-9.25" font-family="Helvetica,sans-Serif" font-size="10.00">cross&#45;encoder</text>
</g>
<!-- serve&#45;&gt;rerank -->
<g id="edge6" class="edge">
<title>serve&#45;&gt;rerank</title>
<path fill="none" stroke="#2c3e50" stroke-width="1.2" stroke-dasharray="5,2" d="M634,-90.9C634,-76.56 634,-62.22 634,-47.87"/>
<polygon fill="#2c3e50" stroke="#2c3e50" stroke-width="1.2" points="636.8,-48.26 634,-40.26 631.2,-48.26 636.8,-48.26"/>
</g>
<!-- chs&#45;&gt;finetune -->
<g id="edge8" class="edge">
<title>chs&#45;&gt;finetune</title>
<path fill="none" stroke="#2c3e50" stroke-width="1.2" stroke-dasharray="1,5" d="M361,-129.48C361,-142.53 361,-158.72 361,-172.42"/>
<polygon fill="#2c3e50" stroke="#2c3e50" stroke-width="1.2" points="358.2,-172.05 361,-180.05 363.8,-172.05 358.2,-172.05"/>
<text xml:space="preserve" text-anchor="middle" x="352.38" y="-151.88" font-family="Helvetica,sans-Serif" font-size="10.00">gate</text>
</g>
</g>
</svg>
