<?xml version="1.0" encoding="UTF-8" standalone="no"?>
<!DOCTYPE svg PUBLIC "-//W3C//DTD SVG 1.1//EN"
 "http://www.w3.org/Graphics/SVG/1.1/DTD/svg11.dtd">
<!-- Generated by graphviz version 14.1.5 (20260411.2331)
 -->
<!-- Title: BoD Pages: 1 -->
<svg width="714pt" height="403pt"
 viewBox="0.00 0.00 714.00 403.00" xmlns="http://www.w3.org/2000/svg" xmlns:xlink="http://www.w3.org/1999/xlink">
<g id="graph0" class="graph" transform="scale(0.980535 0.980535) rotate(0) translate(4 407)">
<title>BoD</title>
<polygon fill="white" stroke="none" points="-4,4 -4,-407 724,-407 724,4 -4,4"/>
<!-- signal -->
<g id="node1" class="node">
<title>signal</title>
<path fill="#fef9e7" stroke="#2c3e50" stroke-width="1.4" d="M140.02,-402.18C140.02,-402.18 29.98,-402.18 29.98,-402.18 23.98,-402.18 17.98,-396.18 17.98,-390.18 17.98,-390.18 17.98,-376.78 17.98,-376.78 17.98,-370.78 23.98,-364.78 29.98,-364.78 29.98,-364.78 140.02,-364.78 140.02,-364.78 146.02,-364.78 152.02,-370.78 152.02,-376.78 152.02,-376.78 152.02,-390.18 152.02,-390.18 152.02,-396.18 146.02,-402.18 140.02,-402.18"/>
<text xml:space="preserve" text-anchor="start" x="33.25" y="-383.63" font-family="Helvetica,sans-Serif" font-weight="bold" font-size="13.00">1. Source signal</text>
<text xml:space="preserve" text-anchor="start" x="29.5" y="-373.48" font-family="Helvetica,sans-Serif" font-size="10.00">clicks · qrels · hybrid+CE</text>
</g>
<!-- bags -->
<g id="node2" class="node">
<title>bags</title>
<path fill="#d6eaf8" stroke="#2c3e50" stroke-width="1.4" d="M147.52,-311.18C147.52,-311.18 22.48,-311.18 22.48,-311.18 16.48,-311.18 10.48,-305.18 10.48,-299.18 10.48,-299.18 10.48,-285.78 10.48,-285.78 10.48,-279.78 16.48,-273.78 22.48,-273.78 22.48,-273.78 147.52,-273.78 147.52,-273.78 153.52,-273.78 159.52,-279.78 159.52,-285.78 159.52,-285.78 159.52,-299.18 159.52,-299.18 159.52,-305.18 153.52,-311.18 147.52,-311.18"/>
<text xml:space="preserve" text-anchor="start" x="22" y="-292.63" font-family="Helvetica,sans-Serif" font-weight="bold" font-size="13.00">2. Bag construction</text>
<text xml:space="preserve" text-anchor="start" x="30.25" y="-282.48" font-family="Helvetica,sans-Serif" font-size="10.00">{ query, [doc1, doc2, ...] }</text>
</g>
<!-- signal&#45;&gt;bags -->
<g id="edge1" class="edge">
<title>signal&#45;&gt;bags</title>
<path fill="none" stroke="#2c3e50" stroke-width="1.2" d="M85,-364.13C85,-349.79 85,-335.44 85,-321.1"/>
<polygon fill="#2c3e50" stroke="#2c3e50" stroke-width="1.2" points="87.8,-321.49 85,-313.49 82.2,-321.49 87.8,-321.49"/>
</g>
<!-- triplets -->
<g id="node3" class="node">
<title>triplets</title>
<path fill="#d6eaf8" stroke="#2c3e50" stroke-width="1.4" d="M426.14,-311.18C426.14,-311.18 295.86,-311.18 295.86,-311.18 289.86,-311.18 283.86,-305.18 283.86,-299.18 283.86,-299.18 283.86,-285.78 283.86,-285.78 283.86,-279.78 289.86,-273.78 295.86,-273.78 295.86,-273.78 426.14,-273.78 426.14,-273.78 432.14,-273.78 438.14,-279.78 438.14,-285.78 438.14,-285.78 438.14,-299.18 438.14,-299.18 438.14,-305.18 432.14,-311.18 426.14,-311.18"/>
<text xml:space="preserve" text-anchor="start" x="295.38" y="-292.63" font-family="Helvetica,sans-Serif" font-weight="bold" font-size="13.00">3. Training examples</text>
<text xml:space="preserve" text-anchor="start" x="301.38" y="-282.48" font-family="Helvetica,sans-Serif" font-size="10.00">(query, pos) or (q, pos, neg)</text>
</g>
<!-- bags&#45;&gt;triplets -->
<g id="edge2" class="edge">
<title>bags&#45;&gt;triplets</title>
<path fill="none" stroke="#2c3e50" stroke-width="1.2" d="M160.15,-292.48C195.21,-292.48 237.29,-292.48 273.77,-292.48"/>
<polygon fill="#2c3e50" stroke="#2c3e50" stroke-width="1.2" points="273.59,-295.28 281.59,-292.48 273.59,-289.68 273.59,-295.28"/>
</g>
<!-- chs -->
<g id="node8" class="node">
<title>chs</title>
<polygon fill="#fcf3cf" stroke="#9a7d0a" stroke-width="1.4" points="429.89,-129.18 286.11,-129.18 286.11,-91.78 435.89,-91.78 435.89,-123.18 429.89,-129.18"/>
<polyline fill="none" stroke="#9a7d0a" stroke-width="1.4" points="429.89,-129.18 429.89,-123.18"/>
<polyline fill="none" stroke="#9a7d0a" stroke-width="1.4" points="435.89,-123.18 429.89,-123.18"/>
<text xml:space="preserve" text-anchor="start" x="297.62" y="-110.63" font-family="Helvetica,sans-Serif" font-weight="bold" font-size="13.00">CHS readiness gate</text>
<text xml:space="preserve" text-anchor="start" x="305.88" y="-100.48" font-family="Helvetica,sans-Serif" font-size="10.00">SCHS ≥ 0.50 → GREEN</text>
</g>
<!-- bags&#45;&gt;chs -->
<g id="edge7" class="edge">
<title>bags&#45;&gt;chs</title>
<path fill="none" stroke="#2c3e50" stroke-width="1.2" stroke-dasharray="1,5" d="M113.05,-273.26C147.58,-248.87 209.29,-205.74 263.23,-170.48 284.57,-156.53 308.98,-141.4 327.94,-129.83"/>
<text xml:space="preserve" text-anchor="middle" x="210" y="-218.35" font-family="Helvetica,sans-Serif" font-size="10.00">measure</text>
</g>
<!-- finetune -->
<g id="node4" class="node">
<title>finetune</title>
<path fill="#fadbd8" stroke="#922b21" stroke-width="1.4" d="M446.77,-220.18C446.77,-220.18 275.23,-220.18 275.23,-220.18 269.23,-220.18 263.23,-214.18 263.23,-208.18 263.23,-208.18 263.23,-194.78 263.23,-194.78 263.23,-188.78 269.23,-182.78 275.23,-182.78 275.23,-182.78 446.77,-182.78 446.77,-182.78 452.77,-182.78 458.77,-188.78 458.77,-194.78 458.77,-194.78 458.77,-208.18 458.77,-208.18 458.77,-214.18 452.77,-220.18 446.77,-220.18"/>
<text xml:space="preserve" text-anchor="start" x="274.75" y="-201.63" font-family="Helvetica,sans-Serif" font-weight="bold" font-size="13.00">4. Fine&#45;tune query encoder</text>
<text xml:space="preserve" text-anchor="start" x="293.5" y="-191.48" font-family="Helvetica,sans-Serif" font-size="10.00">MultipleNegativesRankingLoss</text>
</g>
<!-- triplets&#45;&gt;finetune -->
<g id="edge3" class="edge">
<title>triplets&#45;&gt;finetune</title>
<path fill="none" stroke="#2c3e50" stroke-width="1.2" d="M361,-273.13C361,-258.79 361,-244.44 361,-230.1"/>
<polygon fill="#2c3e50" stroke="#2c3e50" stroke-width="1.2" points="363.8,-230.49 361,-222.49 358.2,-230.49 363.8,-230.49"/>
</g>
<!-- index -->
<g id="node5" class="node">
<title>index</title>
<path fill="#d5f5e3" stroke="#1e8449" stroke-width="1.4" d="M684.14,-220.18C684.14,-220.18 583.86,-220.18 583.86,-220.18 577.86,-220.18 571.86,-214.18 571.86,-208.18 571.86,-208.18 571.86,-194.78 571.86,-194.78 571.86,-188.78 577.86,-182.78 583.86,-182.78 583.86,-182.78 684.14,-182.78 684.14,-182.78 690.14,-182.78 696.14,-188.78 696.14,-194.78 696.14,-194.78 696.14,-208.18 696.14,-208.18 696.14,-214.18 690.14,-220.18 684.14,-220.18"/>
<text xml:space="preserve" text-anchor="start" x="583.38" y="-201.63" font-family="Helvetica,sans-Serif" font-weight="bold" font-size="13.00">5. Index catalog</text>
<text xml:space="preserve" text-anchor="start" x="586.38" y="-191.48" font-family="Helvetica,sans-Serif" font-size="10.00">encode all documents</text>
</g>
<!-- finetune&#45;&gt;index -->
<g id="edge4" class="edge">
<title>finetune&#45;&gt;index</title>
<path fill="none" stroke="#922b21" stroke-width="1.6" d="M459.45,-201.48C492.99,-201.48 529.91,-201.48 561.05,-201.48"/>
<polygon fill="#922b21" stroke="#922b21" stroke-width="1.6" points="560.95,-204.28 568.95,-201.48 560.95,-198.68 560.95,-204.28"/>
<text xml:space="preserve" text-anchor="middle" x="510" y="-214.48" font-family="Helvetica,sans-Serif" font-size="10.00" fill="#922b21">trained</text>
<text xml:space="preserve" text-anchor="middle" x="510" y="-203.23" font-family="Helvetica,sans-Serif" font-size="10.00" fill="#922b21">encoder</text>
</g>
<!-- serve -->
<g id="node6" class="node">
<title>serve</title>
<path fill="#d5f5e3" stroke="#1e8449" stroke-width="1.4" d="M667.64,-129.18C667.64,-129.18 600.36,-129.18 600.36,-129.18 594.36,-129.18 588.36,-123.18 588.36,-117.18 588.36,-117.18 588.36,-103.78 588.36,-103.78 588.36,-97.78 594.36,-91.78 600.36,-91.78 600.36,-91.78 667.64,-91.78 667.64,-91.78 673.64,-91.78 679.64,-97.78 679.64,-103.78 679.64,-103.78 679.64,-117.18 679.64,-117.18 679.64,-123.18 673.64,-129.18 667.64,-129.18"/>
<text xml:space="preserve" text-anchor="start" x="599.88" y="-110.63" font-family="Helvetica,sans-Serif" font-weight="bold" font-size="13.00">6. Retrieve</text>
<text xml:space="preserve" text-anchor="start" x="606.62" y="-100.48" font-family="Helvetica,sans-Serif" font-size="10.00">cosine top&#45;K</text>
</g>
<!-- index&#45;&gt;serve -->
<g id="edge5" class="edge">
<title>index&#45;&gt;serve</title>
<path fill="none" stroke="#2c3e50" stroke-width="1.2" d="M634,-182.13C634,-167.79 634,-153.44 634,-139.1"/>
<polygon fill="#2c3e50" stroke="#2c3e50" stroke-width="1.2" points="636.8,-139.49 634,-131.49 631.2,-139.49 636.8,-139.49"/>
</g>
<!-- rerank -->
<g id="node7" class="node">
<title>rerank</title>
<path fill="#fdebd0" stroke="#b9770e" stroke-width="1.4" stroke-dasharray="5,2" d="M697.27,-38.18C697.27,-38.18 570.73,-38.18 570.73,-38.18 564.73,-38.18 558.73,-32.18 558.73,-26.18 558.73,-26.18 558.73,-12.78 558.73,-12.78 558.73,-6.78 564.73,-0.78 570.73,-0.78 570.73,-0.78 697.27,-0.78 697.27,-0.78 703.27,-0.78 709.27,-6.78 709.27,-12.78 709.27,-12.78 709.27,-26.18 709.27,-26.18 709.27,-32.18 703.27,-38.18 697.27,-38.18"/>
<text xml:space="preserve" text-anchor="start" x="570.25" y="-19.63" font-family="Helvetica,sans-Serif" font-weight="bold" font-size="13.00">7. (Optional) Rerank</text>
<text xml:space="preserve" text-anchor="start" x="603.25" y="-9.48" font-family="Helvetica,sans-Serif" font-size="10.00">cross&#45;encoder</text>
</g>
<!-- serve&#45;&gt;rerank -->
<g id="edge6" class="edge">
<title>serve&#45;&gt;rerank</title>
<path fill="none" stroke="#2c3e50" stroke-width="1.2" stroke-dasharray="5,2" d="M634,-91.13C634,-76.79 634,-62.44 634,-48.1"/>
<polygon fill="#2c3e50" stroke="#2c3e50" stroke-width="1.2" points="636.8,-48.49 634,-40.49 631.2,-48.49 636.8,-48.49"/>
</g>
<!-- chs&#45;&gt;finetune -->
<g id="edge8" class="edge">
<title>chs&#45;&gt;finetune</title>
<path fill="none" stroke="#2c3e50" stroke-width="1.2" stroke-dasharray="1,5" d="M361,-129.78C361,-142.21 361,-158.59 361,-172.56"/>
<polygon fill="#2c3e50" stroke="#2c3e50" stroke-width="1.2" points="358.2,-172.39 361,-180.39 363.8,-172.39 358.2,-172.39"/>
<text xml:space="preserve" text-anchor="middle" x="352.38" y="-152.11" font-family="Helvetica,sans-Serif" font-size="10.00">gate</text>
</g>
</g>
</svg>
